<svg xmlns="http://www.w3.org/2000/svg" width="720" height="440" viewBox="0 0 360 220" role="img"><title>Radio Altimeter</title><defs><linearGradient id="bg" x2="1" y2="1"><stop stop-color="#f6fafc"/><stop offset="1" stop-color="#e4eef5"/></linearGradient><linearGradient id="body" x2=".7" y2="1"><stop stop-color="#ffffff"/><stop offset=".5" stop-color="#eaf2f7"/><stop offset="1" stop-color="#cddfe9"/></linearGradient><filter id="shadow" x="-30%" y="-30%" width="160%" height="170%"><feDropShadow dx="0" dy="9" stdDeviation="6" flood-color="#294b64" flood-opacity=".13"/></filter></defs><rect width="360" height="220" rx="16" fill="url(#bg)"/><circle cx="183" cy="107" r="89" fill="white" opacity=".55"/><ellipse cx="180" cy="201" rx="106" ry="8" fill="#779eb8" opacity=".12"/><g filter="url(#shadow)" font-family="Segoe UI,sans-serif" fill="#284d5d"><rect x="78" y="43" width="204" height="142" rx="14" fill="url(#body)" stroke="#a6bfce"/><rect x="91" y="55" width="165" height="116" rx="7" fill="#173b43"/><g fill="none" stroke="#418277"><circle cx="174" cy="114" r="49"/><circle cx="174" cy="114" r="32"/><circle cx="174" cy="114" r="16"/><path d="M125 114h98m-49-49v98"/></g><path d="M174 114l34-35a49 49 0 0 1 15 35z" fill="#67d8ab" opacity=".3"/><path d="M174 114l35-35" stroke="#79e7b8" stroke-width="2"/><g fill="#98f1c7"><circle cx="196" cy="95" r="3"/><circle cx="147" cy="135" r="3"/><circle cx="186" cy="141" r="2"/></g><circle cx="269" cy="89" r="5" fill="#3265b5"/><path d="M141 185v14h76v-14" fill="#b4cad8"/></g></svg>