<svg xmlns="http://www.w3.org/2000/svg" width="720" height="440" viewBox="0 0 360 220" role="img"><title>Digital Multimeter</title><defs><linearGradient id="bg" x2="1" y2="1"><stop stop-color="#f6fafc"/><stop offset="1" stop-color="#e4eef5"/></linearGradient><linearGradient id="body" x2=".7" y2="1"><stop stop-color="#ffffff"/><stop offset=".5" stop-color="#eaf2f7"/><stop offset="1" stop-color="#cddfe9"/></linearGradient><filter id="shadow" x="-30%" y="-30%" width="160%" height="170%"><feDropShadow dx="0" dy="9" stdDeviation="6" flood-color="#294b64" flood-opacity=".13"/></filter></defs><rect width="360" height="220" rx="16" fill="url(#bg)"/><circle cx="183" cy="107" r="89" fill="white" opacity=".55"/><ellipse cx="180" cy="201" rx="106" ry="8" fill="#779eb8" opacity=".12"/><g filter="url(#shadow)" font-family="Segoe UI,sans-serif" fill="#284d5d"><rect x="125" y="29" width="114" height="171" rx="19" fill="#e4b34f" stroke="#b59341"/><rect x="136" y="43" width="93" height="145" rx="12" fill="#364c5b"/><rect x="145" y="53" width="74" height="40" rx="4" fill="#c2dfd0"/><text x="151" y="81" font-size="20">12.00</text><circle cx="182" cy="132" r="27" fill="#607888"/><path d="M182 132l14-18" stroke="#d8e7ef" stroke-width="6"/><circle cx="164" cy="176" r="5" fill="#e18573"/><circle cx="201" cy="176" r="5" fill="#202e3b"/><path d="M165 199q-77 35-83-37m119 36q55 14 57-38" fill="none" stroke="#b97467" stroke-width="3"/></g></svg>