<svg xmlns="http://www.w3.org/2000/svg" width="720" height="440" viewBox="0 0 360 220" role="img"><title>Infrared Thermometer</title><defs><linearGradient id="bg" x2="1" y2="1"><stop stop-color="#f6fafc"/><stop offset="1" stop-color="#e4eef5"/></linearGradient><linearGradient id="body" x2=".7" y2="1"><stop stop-color="#ffffff"/><stop offset=".5" stop-color="#eaf2f7"/><stop offset="1" stop-color="#cddfe9"/></linearGradient><filter id="shadow" x="-30%" y="-30%" width="160%" height="170%"><feDropShadow dx="0" dy="9" stdDeviation="6" flood-color="#294b64" flood-opacity=".13"/></filter></defs><rect width="360" height="220" rx="16" fill="url(#bg)"/><circle cx="183" cy="107" r="89" fill="white" opacity=".55"/><ellipse cx="180" cy="201" rx="106" ry="8" fill="#779eb8" opacity=".12"/><g filter="url(#shadow)" font-family="Segoe UI,sans-serif" fill="#284d5d"><path d="M126 48h95l30 46-51 30-10 67h-49l-4-89-29-20z" fill="url(#body)" stroke="#a9bbc6"/><rect x="148" y="59" width="65" height="32" rx="5" fill="#cce8df"/><text x="155" y="82" font-size="20">36.7°</text><path d="M140 134h43v35h-43" fill="#127e87"/><circle cx="242" cy="94" r="13" fill="#1c3945"/><path d="M259 72l31-15m-25 36h33m-37 19l29 18" stroke="#127e87" fill="none" stroke-dasharray="4 5"/></g></svg>